<?xml version="1.0" encoding="UTF-8"?>
<svg xmlns="http://www.w3.org/2000/svg" xmlns:xlink="http://www.w3.org/1999/xlink" width="50pt" height="50pt" viewBox="0 0 50 50" version="1.1">
<defs>
<linearGradient id="linear0" gradientUnits="userSpaceOnUse" x1="123.22" y1="392.35" x2="121.66" y2="429.51" gradientTransform="matrix(0.510406,0,0,0.483206,-40.052222,-179.411111)">
<stop offset="0" style="stop-color:rgb(12.941176%,26.666667%,47.058824%);stop-opacity:1;"/>
<stop offset="1" style="stop-color:rgb(12.941176%,26.666667%,47.058824%);stop-opacity:0;"/>
</linearGradient>
<filter id="alpha" filterUnits="objectBoundingBox" x="0%" y="0%" width="100%" height="100%">
  <feColorMatrix type="matrix" in="SourceGraphic" values="0 0 0 0 1 0 0 0 0 1 0 0 0 0 1 0 0 0 1 0"/>
</filter>
<mask id="mask0">
  <g filter="url(#alpha)">
<rect x="0" y="0" width="50" height="50" style="fill:rgb(0%,0%,0%);fill-opacity:0.231373;stroke:none;"/>
  </g>
</mask>
<clipPath id="clip1">
  <rect width="50" height="50"/>
</clipPath>
<g id="surface6" clip-path="url(#clip1)">
<path style=" stroke:none;fill-rule:nonzero;fill:rgb(89.019608%,85.882353%,85.882353%);fill-opacity:1;" d="M 40.121094 30.128906 C 40.121094 37.207031 32.898438 42.949219 23.988281 42.949219 C 15.074219 42.949219 7.851562 37.207031 7.851562 30.128906 C 7.851562 23.046875 15.074219 17.304688 23.988281 17.304688 C 32.898438 17.304688 40.121094 23.046875 40.121094 30.128906 Z M 40.121094 30.128906 "/>
</g>
<linearGradient id="linear1" gradientUnits="userSpaceOnUse" x1="-1020.1" y1="996.01" x2="-1013.7" y2="1111.9" >
<stop offset="0" style="stop-color:rgb(100%,25.490196%,25.490196%);stop-opacity:1;"/>
<stop offset="1" style="stop-color:rgb(50.196078%,0%,0%);stop-opacity:1;"/>
</linearGradient>
</defs>
<g id="surface1">
<path style="fill-rule:nonzero;fill:rgb(21.568627%,44.313725%,78.431373%);fill-opacity:1;stroke-width:0.62165;stroke-linecap:square;stroke-linejoin:round;stroke:rgb(15.294118%,18.431373%,47.45098%);stroke-opacity:1;stroke-miterlimit:4;" d="M 161.0904 423.479411 C 161.0904 444.458383 145.290873 461.46917 125.798411 461.46917 C 106.313037 461.46917 90.513511 444.458383 90.513511 423.479411 C 90.513511 402.500439 106.313037 385.49714 125.798411 385.49714 C 145.290873 385.49714 161.0904 402.500439 161.0904 423.479411 Z M 161.0904 423.479411 " transform="matrix(0.551094,0,0,0.521728,-45.170556,-195.722222)"/>
<path style=" stroke:none;fill-rule:nonzero;fill:url(#linear0);" d="M 42.167969 25.214844 C 42.167969 35.355469 34.105469 43.570312 24.15625 43.570312 C 14.207031 43.570312 6.144531 35.355469 6.144531 25.214844 C 6.144531 15.078125 14.207031 6.863281 24.15625 6.863281 C 34.105469 6.863281 42.167969 15.078125 42.167969 25.214844 Z M 42.167969 25.214844 "/>
<use xlink:href="#surface6" mask="url(#mask0)"/>
<path style="fill-rule:nonzero;fill:url(#linear1);stroke-width:6.4928;stroke-linecap:butt;stroke-linejoin:miter;stroke:rgb(35.294118%,0%,0%);stroke-opacity:1;stroke-miterlimit:4;" d="M -995.728033 1225.806945 C -1004.640115 1182.769016 -1030.938958 1141.050916 -1045.865329 1117.867818 C -1074.132484 1073.96913 -1079.107941 1061.63159 -1078.014434 1037.989421 C -1077.084953 1016.298304 -1069.758456 1000.058659 -1053.902605 984.392853 C -1025.471423 956.389507 -963.797628 953.233392 -934.38229 984.163317 C -916.3941 1002.985238 -913.113579 1010.732066 -911.637344 1034.833306 C -909.176954 1067.369981 -929.789561 1096.693157 -943.294372 1117.695666 C -971.616203 1161.479587 -982.387247 1183.400239 -990.424524 1213.756325 C -993.541019 1225.520026 -994.798552 1228.446605 -995.728033 1225.806945 Z M -995.728033 1225.806945 " transform="matrix(0.0714444,0,0,0.0680722,94.811111,-48.927778)"/>
<path style=" stroke:none;fill-rule:nonzero;fill:rgb(16.862745%,0%,0%);fill-opacity:1;" d="M 26.125 22.597656 C 26.125 23.835938 25.023438 24.835938 23.664062 24.835938 C 22.308594 24.835938 21.207031 23.835938 21.207031 22.597656 C 21.207031 21.363281 22.304688 20.363281 23.664062 20.363281 C 25.023438 20.363281 26.125 21.363281 26.125 22.597656 Z M 26.125 22.597656 "/>
<path style=" stroke:none;fill-rule:nonzero;fill:rgb(15.686275%,4.313725%,4.313725%);fill-opacity:1;" d="M 33.960938 17.476562 L 32.28125 22.023438 C 32.164062 22.386719 32.121094 22.746094 32.097656 23.089844 C 32.078125 23.433594 32.09375 23.742188 32.144531 24.011719 C 32.195312 24.285156 32.277344 24.511719 32.394531 24.691406 C 34.511719 26.742188 30.742188 33.214844 29.90625 35.824219 C 29.75 36.398438 31.519531 36.976562 31.78125 36.324219 C 32.398438 33.015625 32.082031 26.769531 35.109375 25.410156 C 35.300781 25.3125 35.488281 25.160156 35.671875 24.949219 C 35.851562 24.738281 36.019531 24.480469 36.175781 24.171875 C 36.332031 23.863281 36.457031 23.523438 36.558594 23.15625 L 37.382812 18.382812 L 37.101562 18.308594 L 35.703125 22.929688 C 35.671875 23.054688 35.628906 23.164062 35.574219 23.265625 C 35.523438 23.367188 35.46875 23.453125 35.40625 23.523438 C 35.347656 23.59375 35.285156 23.644531 35.21875 23.679688 C 35.152344 23.710938 35.09375 23.71875 35.035156 23.703125 C 34.976562 23.6875 34.925781 23.648438 34.886719 23.589844 C 34.847656 23.53125 34.820312 23.457031 34.804688 23.363281 C 34.785156 23.273438 34.78125 23.171875 34.789062 23.058594 C 34.792969 22.945312 34.8125 22.824219 34.847656 22.703125 L 35.839844 17.976562 L 35.519531 17.890625 L 33.992188 22.476562 C 33.957031 22.597656 33.917969 22.710938 33.867188 22.8125 C 33.816406 22.914062 33.757812 23 33.695312 23.070312 C 33.636719 23.140625 33.570312 23.191406 33.507812 23.222656 C 33.441406 23.257812 33.378906 23.265625 33.320312 23.25 C 33.261719 23.234375 33.214844 23.195312 33.175781 23.136719 C 33.136719 23.078125 33.109375 23 33.09375 22.910156 C 33.074219 22.820312 33.070312 22.714844 33.078125 22.605469 C 33.085938 22.492188 33.105469 22.375 33.136719 22.25 L 34.277344 17.5625 Z M 33.960938 17.476562 "/>
<path style=" stroke:none;fill-rule:nonzero;fill:rgb(14.117647%,10.980392%,10.980392%);fill-opacity:1;" d="M 16.074219 20.871094 C 16.535156 22.582031 15.960938 25.082031 14.515625 25.464844 C 13.074219 25.847656 11.308594 23.964844 10.847656 22.257812 C 10.382812 20.546875 10.980469 18.117188 12.421875 17.738281 C 13.867188 17.355469 15.609375 19.164062 16.074219 20.871094 Z M 16.074219 20.871094 "/>
<path style=" stroke:none;fill-rule:nonzero;fill:rgb(14.117647%,10.980392%,10.980392%);fill-opacity:1;" d="M 14.542969 25.070312 L 14.550781 25.070312 C 14.550781 25.070312 14.554688 25.070312 14.554688 25.070312 L 18.210938 35.886719 C 18.324219 36.539062 16.988281 36.792969 16.839844 36.253906 L 14.542969 25.074219 C 14.542969 25.074219 14.542969 25.070312 14.542969 25.070312 Z M 14.542969 25.070312 "/>
<path style=" stroke:none;fill-rule:nonzero;fill:rgb(100%,100%,100%);fill-opacity:1;" d="M 15.5 20.300781 C 15.964844 22.007812 15.386719 24.511719 13.945312 24.894531 C 12.5 25.277344 10.738281 23.394531 10.273438 21.683594 C 9.8125 19.976562 10.40625 17.546875 11.851562 17.164062 C 13.292969 16.78125 15.039062 18.589844 15.5 20.300781 Z M 15.5 20.300781 "/>
<path style=" stroke:none;fill-rule:nonzero;fill:rgb(100%,100%,100%);fill-opacity:1;" d="M 13.972656 24.5 L 13.976562 24.496094 C 13.980469 24.496094 13.980469 24.5 13.980469 24.5 L 17.640625 35.316406 C 17.753906 35.96875 16.417969 36.21875 16.269531 35.679688 L 13.96875 24.503906 C 13.96875 24.5 13.96875 24.5 13.972656 24.5 Z M 13.972656 24.5 "/>
<path style=" stroke:none;fill-rule:nonzero;fill:rgb(100%,100%,100%);fill-opacity:1;" d="M 33.730469 17.023438 L 32.050781 21.566406 C 31.9375 21.929688 31.890625 22.289062 31.871094 22.632812 C 31.847656 22.976562 31.863281 23.285156 31.914062 23.558594 C 31.964844 23.828125 32.050781 24.054688 32.167969 24.238281 C 34.28125 26.285156 30.511719 32.761719 29.675781 35.367188 C 29.523438 35.945312 31.289062 36.523438 31.554688 35.867188 C 32.171875 32.558594 31.855469 26.316406 34.878906 24.957031 C 35.074219 24.855469 35.261719 24.703125 35.441406 24.492188 C 35.625 24.28125 35.792969 24.023438 35.945312 23.714844 C 36.101562 23.40625 36.230469 23.070312 36.328125 22.703125 L 37.152344 17.929688 L 36.871094 17.855469 L 35.476562 22.476562 C 35.441406 22.597656 35.398438 22.710938 35.347656 22.808594 C 35.296875 22.910156 35.238281 22.996094 35.179688 23.070312 C 35.117188 23.140625 35.054688 23.191406 34.988281 23.222656 C 34.925781 23.253906 34.863281 23.261719 34.804688 23.246094 C 34.746094 23.230469 34.695312 23.195312 34.660156 23.132812 C 34.621094 23.074219 34.589844 23 34.574219 22.910156 C 34.558594 22.816406 34.550781 22.714844 34.558594 22.601562 C 34.566406 22.488281 34.582031 22.371094 34.617188 22.246094 L 35.613281 17.519531 L 35.289062 17.433594 L 33.761719 22.019531 C 33.730469 22.144531 33.6875 22.253906 33.636719 22.355469 C 33.585938 22.457031 33.53125 22.542969 33.46875 22.613281 C 33.40625 22.683594 33.34375 22.738281 33.277344 22.769531 C 33.210938 22.800781 33.152344 22.808594 33.09375 22.792969 C 33.035156 22.777344 32.984375 22.742188 32.945312 22.679688 C 32.90625 22.621094 32.878906 22.546875 32.863281 22.453125 C 32.847656 22.363281 32.839844 22.261719 32.847656 22.148438 C 32.855469 22.035156 32.875 21.917969 32.910156 21.796875 L 34.046875 17.105469 Z M 33.730469 17.023438 "/>
</g>
</svg>
